<?xml version="1.0" encoding="utf-8"?>
<!-- Generator: Adobe Illustrator 24.0.1, SVG Export Plug-In . SVG Version: 6.00 Build 0)  -->
<svg version="1.1" id="Camada_1" xmlns="http://www.w3.org/2000/svg" xmlns:xlink="http://www.w3.org/1999/xlink" x="0px" y="0px"
	 viewBox="0 0 1080 1080" style="enable-background:new 0 0 1080 1080;" xml:space="preserve">
<style type="text/css">
	.st0{fill:#FFFFFF;}
	.st1{fill:#126594;}
	.st2{fill:#119EC6;}
	.st3{fill:#123654;}
</style>
<g>
	<g>
		<g>
			<path class="st0" d="M382.37,215.88c15.57-9.43,31.14-18.87,46.72-28.3c14.5-8.78,29-17.59,44.18-25.15
				c28.29-14.08,59.96-23.52,91.16-13.79c16.33,5.09,31.55,13.55,46.87,21.02c16.51,8.06,33.03,16.11,49.54,24.17
				c33.03,16.11,66.06,32.23,99.09,48.34c16.28,7.94,32.55,15.88,48.83,23.82c14.72,7.18,29.6,14.11,43.89,22.12
				c12.52,7.02,24.57,14.94,34.73,25.15c9.87,9.92,17.54,22.16,22.34,35.01c10.24,27.41,11.17,56.65,11.46,85.65
				c0.36,36.18,0.48,72.37,0.72,108.56c0.24,36.65,0.48,73.3,0.72,109.94c0.18,27.6,0.36,55.34-5.99,81.66
				c-6.34,26.28-19,47.86-43.04,62.02c-15.13,8.91-31.46,15.95-47.25,23.59c-16.34,7.9-32.67,15.8-49.01,23.71
				c-33.15,16.04-66.31,32.07-99.46,48.11c-16.58,8.02-33.15,16.04-49.73,24.05c-14.18,6.86-27.9,15-42.58,18.88
				c-1.48,0.39-2.98,0.74-4.49,1.02c-0.74,0.14-1.49,0.28-2.23,0.38c1.27-0.16-0.55,0.02-0.66,0.03c-1.62,0.11-3.23,0.14-4.85,0.1
				c-0.22-0.01-2.38-0.18-1.28-0.05c1,0.12-1.48-0.29-1.71-0.35c-2.41-0.58-4.09-1.37-5.02-2.13c-2.22-1.81-3.64-4.07-4.54-6.62
				c-2.54-7.25-2.68-15.07-3.09-22.76c-0.5-9.2-0.56-18.42-0.65-27.63c-0.35-36.75-0.7-73.5-1.05-110.25
				c-0.7-73.23-1.39-146.47-2.09-219.7c-0.07-7.85-1.16-17.07,0.09-24.51c1.06-6.29,6.56-8.63,12.06-11.45
				c14.74-7.57,29.52-15.05,44.27-22.58c25.67-13.09,51.35-26.19,77.02-39.28c14.37-7.33,28.73-14.65,43.1-21.98
				c4.81-2.45,6.2-9.21,3.59-13.68c-2.86-4.89-8.85-6.05-13.68-3.59c-28.49,14.53-56.97,29.06-85.46,43.59
				c-13.33,6.8-26.65,13.59-39.98,20.39c-7.51,3.83-15.02,7.66-22.53,11.49c-7.66,3.91-15.81,7.4-23.06,12.05
				c-7.44,4.78-13.13,11.46-14.72,20.36c-1.57,8.77-0.81,17.93-0.72,26.8c0.18,19.17,0.36,38.35,0.55,57.52
				c0.36,37.82,0.72,75.63,1.08,113.45c0.36,38.08,0.72,76.16,1.09,114.25c0.18,18.88,0.29,37.75,0.55,56.63
				c0.13,9.47,0.4,18.94,1.3,28.37c0.83,8.73,1.89,17.75,6.37,25.48c8.37,14.45,24.54,17.72,39.9,15.27
				c15.67-2.5,30.06-10.86,44.16-17.68c34.11-16.5,68.23-33,102.34-49.5c34.35-16.62,68.71-33.23,103.06-49.85
				c16.1-7.79,32.7-14.98,48.2-23.92c13.94-8.05,25.83-18.42,35.04-31.64c16.38-23.51,21.88-52.95,24.03-80.99
				c2.52-32.92,0.96-66.23,0.75-99.21c-0.25-37.98-0.5-75.95-0.75-113.93c-0.22-33.8,1.17-68.15-2.83-101.77
				c-3.74-31.41-13.15-62.16-35.39-85.56c-22.35-23.51-52.95-36.87-81.61-50.85c-68.45-33.4-136.91-66.79-205.36-100.19
				c-16.29-7.95-32.61-16.78-50.17-21.63c-17.08-4.72-34.82-4.74-52.16-1.49c-34.26,6.42-64.98,25.28-94.36,43.08
				c-15.8,9.57-31.6,19.14-47.39,28.71C361.28,205.27,371.32,222.57,382.37,215.88L382.37,215.88z"/>
		</g>
	</g>
	<g>
		<g>
			<path class="st0" d="M345.58,875.54c-24.42-11.5-48.63-23.5-71.83-37.34c-21.27-12.69-41.66-26.78-62.12-40.72
				c-6.64-4.52-13.29-9.03-19.94-13.55c-3.2-2.17-6.38-4.38-9.47-6.7c-0.21-0.16-1.69-1.3-0.76-0.57c0.85,0.66-0.31-0.25-0.39-0.32
				c-0.69-0.56-1.39-1.12-2.07-1.69c-1.59-1.33-3.14-2.7-4.63-4.13c-1.27-1.22-2.51-2.49-3.69-3.8c-0.69-0.77-1.32-1.58-2.01-2.35
				c-0.75-0.84,0.09,0.15,0.2,0.29c-0.35-0.47-0.7-0.95-1.04-1.43c-2.18-3.08-3.87-6.37-5.52-9.75c0.83,1.7-0.21-0.54-0.45-1.17
				c-0.3-0.8-0.59-1.61-0.86-2.42c-0.59-1.76-1.11-3.55-1.56-5.35c-0.46-1.81-0.86-3.64-1.2-5.48c-0.16-0.85-0.31-1.71-0.44-2.57
				c-0.05-0.3-0.34-2.13-0.14-0.83c0.19,1.22-0.08-0.62-0.1-0.84c-1.94-16.31-0.92-32.94-0.62-49.31
				c0.34-18.59,0.68-37.18,1.02-55.77c0.68-37.18,1.36-74.36,2.04-111.54c0.34-18.59,0.68-37.18,1.02-55.77
				c0.33-18.06-0.08-36.33,1.5-54.34c0.17-1.93,0.36-3.87,0.62-5.79c-0.23,1.66,0.12-0.65,0.21-1.17c0.21-1.27,0.44-2.54,0.7-3.8
				c0.83-4.04,1.91-8.04,3.35-11.9c0.31-0.83,0.86-2.11,0.16-0.51c0.37-0.84,0.74-1.67,1.14-2.49c0.74-1.53,1.55-3.03,2.42-4.49
				c0.87-1.46,1.81-2.88,2.8-4.26c0.23-0.32,0.46-0.63,0.7-0.94c-0.06,0.08-1.1,1.32-0.35,0.49c0.69-0.77,1.34-1.59,2.04-2.35
				c1.05-1.14,2.15-2.23,3.31-3.26c0.67-0.6,1.36-1.17,2.06-1.73c-1.55,1.24,0.09-0.02,0.77-0.46c1.38-0.92,2.81-1.75,4.29-2.49
				c0.85-0.42,2.03-0.82,0.4-0.24c0.85-0.3,1.68-0.63,2.54-0.9c0.93-0.29,1.86-0.55,2.81-0.76c0.52-0.12,2.82-0.55,1.15-0.3
				c2.2-0.33,4.48-0.35,6.69-0.26c0.96,0.04,1.91,0.12,2.87,0.2c0.09,0.01,1.66,0.21,0.58,0.06c-1.08-0.15,0.5,0.09,0.58,0.11
				c2.24,0.42,4.47,0.9,6.67,1.51c4.15,1.15,8.19,2.65,12.19,4.27c0.02,0.01,1.53,0.64,0.65,0.26c-0.88-0.37,0.62,0.27,0.64,0.28
				c1.06,0.46,2.12,0.93,3.17,1.4c2.02,0.9,4.03,1.81,6.04,2.73c8.39,3.8,16.77,7.61,25.15,11.44
				c16.59,7.59,33.15,15.25,49.68,22.97c33.06,15.45,65.99,31.17,98.79,47.15c32.96,16.06,65.79,32.39,98.48,48.99
				c7.9,4.01,15.8,8.04,23.68,12.08c4.65,2.38,11.06,1.37,13.68-3.59c2.42-4.57,1.38-11.13-3.59-13.68
				c-33.25-17.04-66.63-33.81-100.16-50.3c-33.52-16.49-67.18-32.7-100.98-48.62c-33.72-15.89-67.5-31.75-101.59-46.84
				c-16.76-7.42-36.11-14.55-54.32-7.75c-14.97,5.59-26.36,17.87-32.56,32.43c-7.21,16.93-8.01,35.32-8.35,53.47
				c-0.35,19.11-0.7,38.21-1.05,57.32c-0.7,38.07-1.39,76.13-2.09,114.2c-0.69,37.41-1.91,74.85-2,112.27
				c-0.04,16,0.93,32.68,7.19,47.61c3.51,8.38,8.3,15.84,14.65,22.39c5.96,6.13,12.94,11.27,19.94,16.13
				c22.95,15.93,46.04,31.81,69.6,46.82c21.12,13.45,43.06,25.41,65.52,36.46c7.32,3.6,14.68,7.12,22.06,10.6
				c4.72,2.22,11.01,1.48,13.68-3.59C351.52,884.79,350.64,877.92,345.58,875.54L345.58,875.54z"/>
		</g>
	</g>
	<circle class="st1" cx="725.41" cy="418.03" r="52.99"/>
	<circle class="st2" cx="362.94" cy="210.39" r="52.99"/>
	<circle class="st3" cx="340.54" cy="884.18" r="52.99"/>
</g>
</svg>
